Coordinates
version=1
nRows=6
nColumns=36
inDegrees=yes

Units are S.I. units (second, meters, Newtons, ...)
If the header above contains a line with 'inDegrees', this indicates whether rotational values are in degrees (yes) or radians (no).

endheader
time	pelvis_tilt	pelvis_list	pelvis_rotation	pelvis_tx	pelvis_ty	pelvis_tz	hip_flexion_r	hip_adduction_r	hip_rotation_r	knee_angle_r	knee_angle_r_beta	ankle_angle_r	subtalar_angle_r	mtp_angle_r	hip_flexion_l	hip_adduction_l	hip_rotation_l	knee_angle_l	knee_angle_l_beta	ankle_angle_l	subtalar_angle_l	mtp_angle_l	lumbar_extension	lumbar_bending	lumbar_rotation	arm_flex_r	arm_add_r	arm_rot_r	elbow_flex_r	pro_sup_r	arm_flex_l	arm_add_l	arm_rot_l	elbow_flex_l	pro_sup_l
     15.18333330	     -4.83313596	     -0.35834296	     -3.10418603	      1.06582934	      0.91637473	      0.64563962	     29.10013327	     -4.17094411	      2.99834030	     13.44643583	      0.23468458	      9.82089857	      2.40976465	     -7.49999987	      2.87857549	     -0.56303718	      1.68109024	     19.65032514	      0.34296287	     18.51445984	     -4.82889774	     -7.49999987	    -14.32567301	      0.99585873	      0.28389099	      8.35533193	    -13.68875435	     13.62105651	     27.37044496	     83.98615814	     11.68759023	    -14.66440848	      2.35445015	     23.81320379	     79.99366086
     15.20000000	     -4.60647593	     -0.31975008	     -3.01123727	      1.06729995	      0.91482889	      0.64656621	     28.61856151	     -4.01226109	      3.13881534	     10.48472858	      0.18299303	      9.58991177	      3.97404752	     -7.49999987	      0.99023043	     -0.65060612	      1.86182265	     18.45126269	      0.32203529	     18.19650631	     -4.46522198	     -7.49999987	    -14.39633690	      1.16520369	     -0.09473759	      8.34454601	    -13.76160576	     13.28913065	     27.08091592	     83.86239722	     12.38801993	    -14.90422805	      2.55774167	     23.74808705	     79.95299486
     15.21666670	     -4.45726013	     -0.47129399	     -2.92263697	      1.06957674	      0.91001038	      0.64860618	     28.13483320	     -3.59497652	      3.50635237	      8.50961470	      0.14852079	      9.18571848	      4.89009550	     -7.49999987	     -0.79530991	     -0.89502306	      1.77636178	     17.52086048	      0.30579670	     18.30061771	     -4.04375313	     -7.49999987	    -14.23237134	      1.52071133	     -0.25660718	      8.13849602	    -13.84103431	     12.64684203	     26.85302400	     83.31203539	     13.02730578	    -15.00649852	      3.02508372	     23.73730426	     79.64024187
     15.23333330	     -4.39249050	     -0.88476547	     -2.80813037	      1.07137917	      0.90597022	      0.65227537	     27.60874408	     -2.83558308	      3.87822163	      7.63926359	      0.13333030	      8.45457563	      5.25417466	     -7.49999987	     -2.37352647	     -1.39625554	      1.61308112	     16.89004115	      0.29478683	     18.56374412	     -3.92152856	     -7.49999987	    -13.92327073	      2.14300818	     -0.47563568	      7.95472870	    -14.01289857	     12.42504581	     26.66485550	     83.23106945	     13.37674073	    -15.02098469	      3.19464386	     23.81185260	     79.64394285
     15.25000000	     -4.19295559	     -1.48873091	     -2.73112974	      1.07350986	      0.90486860	      0.65791521	     26.81927297	     -1.76698106	      4.25660960	      7.70759924	      0.13452298	      7.27252349	      5.21593159	     -7.49999987	     -3.95299692	     -2.15406298	      1.30479520	     16.50496546	      0.28806599	     18.86530976	     -3.79830886	     -7.49999987	    -13.75725712	      2.86603068	     -0.55940932	      7.81038119	    -14.16287845	     12.12048598	     26.33292601	     83.12677710	     13.64714517	    -14.99560820	      3.33834695	     23.86643002	     79.66613839
     15.26666670	     -3.92868171	     -2.14986593	     -2.73103261	      1.07715306	      0.90807791	      0.66418303	     25.87920462	     -0.55107700	      4.52724920	      8.33875227	      0.14553868	      5.64068678	      5.05572018	     -7.49999987	     -5.49573540	     -3.02138438	      0.91555933	     16.29640018	      0.28442584	     18.87139433	     -3.77062924	     -7.49999987	    -13.62153861	      3.57801382	     -0.52740215	      7.65728904	    -14.28999615	     11.81166329	     25.80213078	     83.01489225	     13.75357468	    -14.90206106	      3.41364881	     23.87597038	     79.68273569
